<svg width="17" height="17" viewBox="0 0 17 17" fill="none" xmlns="http://www.w3.org/2000/svg">
<path d="M2.07342 7.1015C2.21849 6.95647 2.41523 6.875 2.62036 6.875C2.82549 6.875 3.02222 6.95647 3.16729 7.1015L6.99659 10.9308L10.8259 7.1015C10.9718 6.96058 11.1672 6.88261 11.37 6.88437C11.5729 6.88613 11.7669 6.96749 11.9103 7.11092C12.0538 7.25435 12.1351 7.44838 12.1369 7.65122C12.1387 7.85405 12.0607 8.04946 11.9198 8.19536L7.54353 12.5716C7.39846 12.7166 7.20172 12.7981 6.99659 12.7981C6.79146 12.7981 6.59473 12.7166 6.44966 12.5716L2.07342 8.19536C1.9284 8.05029 1.84692 7.85356 1.84692 7.64843C1.84692 7.4433 1.9284 7.24657 2.07342 7.1015Z" fill="#484848"/>
</svg>
